<svg xmlns="http://www.w3.org/2000/svg" viewBox="0 0 240 180"><defs><linearGradient id="fish" x1="0" y1="0" x2="0" y2="1"><stop offset="0" stop-color="#86B2D2"/><stop offset="1" stop-color="#5D8DB4"/></linearGradient></defs><ellipse cx="118" cy="154" rx="88" ry="7" fill="#17241D" opacity="0.08"/><path d="M44 98l-23-19c-3 13-3 25 0 38z" fill="#4E7FA6"/><path d="M44 98c16-23 53-31 86-21 13 4 23 10 33 21-10 11-20 17-33 21-33 10-70 2-86-21z" fill="url(#fish)"/><path d="M58 106c24 11 62 15 96 2-30 13-70 11-96-2z" fill="#B9D4E7"/><path d="M89 78c8-14 25-16 35-9-10 2-19 7-25 14z" fill="#4E7FA6"/><path d="M100 117c4 8 12 11 20 10-6-3-10-7-12-12z" fill="#4E7FA6"/><path d="M131 85c-4 8-4 17 0 26" stroke="#4E7FA6" stroke-width="2.6" fill="none" stroke-linecap="round"/><path d="M80 89c5 4 5 10 0 15" stroke="#A6C6DE" stroke-width="2" fill="none" stroke-linecap="round"/><path d="M95 89c5 4 5 10 0 15" stroke="#A6C6DE" stroke-width="2" fill="none" stroke-linecap="round"/><path d="M110 89c5 4 5 10 0 15" stroke="#A6C6DE" stroke-width="2" fill="none" stroke-linecap="round"/><circle cx="146" cy="92" r="5" fill="#fff"/><circle cx="147" cy="92" r="2.4" fill="#17241D"/><path d="M201 106c13 15 4 38-17 40-13 1-21-6-22-15" stroke="#EE8A5B" stroke-width="16" fill="none" stroke-linecap="round"/><path d="M201 106c13 15 4 38-17 40-13 1-21-6-22-15" stroke="#F7B597" stroke-width="16" fill="none" stroke-dasharray="2.5 8" opacity=".9"/><path d="M163 132l-13-3 5 12z" fill="#E26D3E"/><path d="M164 134l-6 12 11-3z" fill="#E26D3E"/><circle cx="200" cy="104" r="9" fill="#EE8A5B"/><circle cx="203" cy="101" r="1.8" fill="#17241D"/><path d="M205 98c8-11 18-15 27-15M203 96c3-13 11-19 19-21" stroke="#E26D3E" stroke-width="1.6" fill="none" stroke-linecap="round"/></svg>