<svg xmlns="http://www.w3.org/2000/svg" viewBox="0 0 240 180"><defs><linearGradient id="crust" x1="0" y1="0" x2="0" y2="1"><stop offset="0" stop-color="#DDA466"/><stop offset="1" stop-color="#B8773B"/></linearGradient><radialGradient id="crumb" cx="0.4" cy="0.35" r="0.8"><stop offset="0" stop-color="#F7E3BC"/><stop offset="1" stop-color="#EAC98F"/></radialGradient></defs><ellipse cx="124" cy="154" rx="84" ry="7" fill="#17241D" opacity="0.08"/><path d="M60 136c0-34 28-58 76-58s76 24 76 58c0 10-6 16-16 16H76c-10 0-16-6-16-16z" fill="url(#crust)"/><path d="M72 120c6-24 30-36 64-36s58 12 64 36c-15-12-38-19-64-19s-49 7-64 19z" fill="#E8B67A" opacity=".55"/><path d="M93 112c5-9 11-14 19-16" stroke="#A9692F" stroke-width="4.5" fill="none" stroke-linecap="round"/><path d="M119 112c5-9 11-14 19-16" stroke="#A9692F" stroke-width="4.5" fill="none" stroke-linecap="round"/><path d="M145 112c5-9 11-14 19-16" stroke="#A9692F" stroke-width="4.5" fill="none" stroke-linecap="round"/><path d="M169 112c5-9 11-14 19-16" stroke="#A9692F" stroke-width="4.5" fill="none" stroke-linecap="round"/><path d="M30 154c-6-30 8-50 30-50s36 20 30 50z" fill="#C98A4B"/><path d="M36 151c-4-25 7-40 24-40s28 15 24 40z" fill="url(#crumb)"/><ellipse cx="50" cy="128" rx="2.4" ry="1.7" fill="#DDB774"/><ellipse cx="64" cy="138" rx="2" ry="1.4" fill="#DDB774"/><ellipse cx="58" cy="122" rx="1.6" ry="1.1" fill="#DDB774"/><ellipse cx="72" cy="128" rx="2.2" ry="1.5" fill="#DDB774"/><ellipse cx="46" cy="142" rx="1.8" ry="1.3" fill="#DDB774"/><ellipse cx="68" cy="146" rx="1.5" ry="1.0" fill="#DDB774"/></svg>