<svg xmlns="http://www.w3.org/2000/svg" viewBox="0 0 240 180"><defs></defs><ellipse cx="120" cy="155" rx="86" ry="7" fill="#17241D" opacity="0.08"/><ellipse cx="122" cy="96" rx="52" ry="34" fill="#F1C964"/><ellipse cx="121.4" cy="98.8" rx="36.9" ry="23.5" fill="none" stroke="#F6D57E" stroke-width="3" transform="rotate(50.9 122 96)"/><ellipse cx="125.5" cy="92.8" rx="30.6" ry="27.7" fill="none" stroke="#ECBC56" stroke-width="3" transform="rotate(-2.9 122 96)"/><ellipse cx="123.6" cy="96.8" rx="33.3" ry="15.5" fill="none" stroke="#ECBC56" stroke-width="3" transform="rotate(37.2 122 96)"/><ellipse cx="117.9" cy="92.1" rx="35.5" ry="21.7" fill="none" stroke="#ECBC56" stroke-width="3" transform="rotate(28.7 122 96)"/><ellipse cx="123.2" cy="98.2" rx="38.7" ry="15" fill="none" stroke="#E3AE45" stroke-width="3" transform="rotate(-37.2 122 96)"/><ellipse cx="123.7" cy="96" rx="33.8" ry="24" fill="none" stroke="#E3AE45" stroke-width="3" transform="rotate(-36.6 122 96)"/><ellipse cx="127.9" cy="98.7" rx="41.9" ry="21.8" fill="none" stroke="#ECBC56" stroke-width="3" transform="rotate(-26.6 122 96)"/><ellipse cx="116.4" cy="96.5" rx="43" ry="19.4" fill="none" stroke="#F6D57E" stroke-width="3" transform="rotate(-32.4 122 96)"/><ellipse cx="127.5" cy="98.8" rx="28.6" ry="15.8" fill="none" stroke="#E3AE45" stroke-width="3" transform="rotate(-25.1 122 96)"/><ellipse cx="120.5" cy="97.7" rx="26" ry="17.6" fill="none" stroke="#F6D57E" stroke-width="3" transform="rotate(49.2 122 96)"/><ellipse cx="119.2" cy="92.7" rx="36.1" ry="23.6" fill="none" stroke="#ECBC56" stroke-width="3" transform="rotate(-36.2 122 96)"/><ellipse cx="117.6" cy="97.7" rx="34" ry="30.4" fill="none" stroke="#E3AE45" stroke-width="3" transform="rotate(31 122 96)"/><ellipse cx="122.7" cy="95.6" rx="26.3" ry="21.9" fill="none" stroke="#ECBC56" stroke-width="3" transform="rotate(-1.6 122 96)"/><ellipse cx="120.6" cy="95.2" rx="30.6" ry="26.4" fill="none" stroke="#ECBC56" stroke-width="3" transform="rotate(-44.3 122 96)"/><ellipse cx="119.6" cy="99.1" rx="49.8" ry="14" fill="none" stroke="#ECBC56" stroke-width="3" transform="rotate(43.7 122 96)"/><ellipse cx="122.9" cy="92.3" rx="31.1" ry="20.7" fill="none" stroke="#ECBC56" stroke-width="3" transform="rotate(42.5 122 96)"/><g transform="translate(70 130) rotate(-16) scale(1)"><path d="M-26-16c9 2 18 9 26 13 8-4 17-11 26-13 4 11 4 21 0 32-9-2-18-9-26-13-8 4-17 11-26 13-4-11-4-21 0-32z" fill="#F3C553"/><path d="M-26-16c-4 11-4 21 0 32M26-16c4 11 4 21 0 32" stroke="#E0A63A" stroke-width="3" stroke-dasharray="2 3" fill="none"/><path d="M-18-8l8 4M-18 8l8-4M18-8l-8 4M18 8l-8-4" stroke="#E7B444" stroke-width="1.6" stroke-linecap="round"/><ellipse cx="0" cy="0" rx="5" ry="8" fill="#E2A93A"/></g><g transform="translate(124 140) rotate(6) scale(1)"><path d="M-26-16c9 2 18 9 26 13 8-4 17-11 26-13 4 11 4 21 0 32-9-2-18-9-26-13-8 4-17 11-26 13-4-11-4-21 0-32z" fill="#F3C553"/><path d="M-26-16c-4 11-4 21 0 32M26-16c4 11 4 21 0 32" stroke="#E0A63A" stroke-width="3" stroke-dasharray="2 3" fill="none"/><path d="M-18-8l8 4M-18 8l8-4M18-8l-8 4M18 8l-8-4" stroke="#E7B444" stroke-width="1.6" stroke-linecap="round"/><ellipse cx="0" cy="0" rx="5" ry="8" fill="#E2A93A"/></g><g transform="translate(178 126) rotate(22) scale(1)"><path d="M-26-16c9 2 18 9 26 13 8-4 17-11 26-13 4 11 4 21 0 32-9-2-18-9-26-13-8 4-17 11-26 13-4-11-4-21 0-32z" fill="#F3C553"/><path d="M-26-16c-4 11-4 21 0 32M26-16c4 11 4 21 0 32" stroke="#E0A63A" stroke-width="3" stroke-dasharray="2 3" fill="none"/><path d="M-18-8l8 4M-18 8l8-4M18-8l-8 4M18 8l-8-4" stroke="#E7B444" stroke-width="1.6" stroke-linecap="round"/><ellipse cx="0" cy="0" rx="5" ry="8" fill="#E2A93A"/></g></svg>