<svg xmlns="http://www.w3.org/2000/svg" viewBox="0 0 240 180"><defs><linearGradient id="bowlb" x1="0" y1="0" x2="0" y2="1"><stop offset="0" stop-color="#7F9DBA"/><stop offset="1" stop-color="#57779A"/></linearGradient></defs><ellipse cx="116" cy="156" rx="80" ry="7" fill="#17241D" opacity="0.08"/><path d="M186 154c4-30 10-62 22-92" stroke="#C9A04A" stroke-width="3" fill="none" stroke-linecap="round"/><ellipse cx="201" cy="66" rx="4.4" ry="8" fill="#DDB25A" transform="rotate(-14 201 66)"/><ellipse cx="213" cy="66" rx="4.4" ry="8" fill="#DDB25A" transform="rotate(42 213 66)"/><ellipse cx="198.2" cy="73.7" rx="4.4" ry="8" fill="#DDB25A" transform="rotate(-14 198.2 73.7)"/><ellipse cx="210.2" cy="73.7" rx="4.4" ry="8" fill="#DDB25A" transform="rotate(42 210.2 73.7)"/><ellipse cx="195.3" cy="81.4" rx="4.4" ry="8" fill="#DDB25A" transform="rotate(-14 195.3 81.4)"/><ellipse cx="207.3" cy="81.4" rx="4.4" ry="8" fill="#DDB25A" transform="rotate(42 207.3 81.4)"/><ellipse cx="192.5" cy="89.1" rx="4.4" ry="8" fill="#DDB25A" transform="rotate(-14 192.5 89.1)"/><ellipse cx="204.5" cy="89.1" rx="4.4" ry="8" fill="#DDB25A" transform="rotate(42 204.5 89.1)"/><ellipse cx="189.7" cy="96.9" rx="4.4" ry="8" fill="#DDB25A" transform="rotate(-14 189.7 96.9)"/><ellipse cx="201.7" cy="96.9" rx="4.4" ry="8" fill="#DDB25A" transform="rotate(42 201.7 96.9)"/><ellipse cx="186.9" cy="104.6" rx="4.4" ry="8" fill="#DDB25A" transform="rotate(-14 186.9 104.6)"/><ellipse cx="198.9" cy="104.6" rx="4.4" ry="8" fill="#DDB25A" transform="rotate(42 198.9 104.6)"/><ellipse cx="184" cy="112.3" rx="4.4" ry="8" fill="#DDB25A" transform="rotate(-14 184 112.3)"/><ellipse cx="196" cy="112.3" rx="4.4" ry="8" fill="#DDB25A" transform="rotate(42 196 112.3)"/><ellipse cx="116" cy="106" rx="64" ry="11" fill="#4E6C8E"/><path d="M64 106c4-27 25-42 52-42s48 15 52 42z" fill="#FBF8EF"/><ellipse cx="128.3" cy="96.2" rx="3.6" ry="1.5" fill="#E9E2D0" transform="rotate(143.1 128.3 96.2)"/><ellipse cx="160.2" cy="96.1" rx="3.6" ry="1.5" fill="#E9E2D0" transform="rotate(166 160.2 96.1)"/><ellipse cx="160.3" cy="92.7" rx="3.6" ry="1.5" fill="#E9E2D0" transform="rotate(162.2 160.3 92.7)"/><ellipse cx="77.3" cy="85.8" rx="3.6" ry="1.5" fill="#E9E2D0" transform="rotate(44.4 77.3 85.8)"/><ellipse cx="120.4" cy="89.8" rx="3.6" ry="1.5" fill="#E9E2D0" transform="rotate(2.4 120.4 89.8)"/><ellipse cx="87.7" cy="78.6" rx="3.6" ry="1.5" fill="#E9E2D0" transform="rotate(164.9 87.7 78.6)"/><ellipse cx="142.6" cy="74.1" rx="3.6" ry="1.5" fill="#E9E2D0" transform="rotate(143.5 142.6 74.1)"/><ellipse cx="79.9" cy="91.5" rx="3.6" ry="1.5" fill="#E9E2D0" transform="rotate(22.8 79.9 91.5)"/><ellipse cx="86.9" cy="76.2" rx="3.6" ry="1.5" fill="#E9E2D0" transform="rotate(176.8 86.9 76.2)"/><ellipse cx="133.8" cy="75.8" rx="3.6" ry="1.5" fill="#E9E2D0" transform="rotate(169.4 133.8 75.8)"/><ellipse cx="135.1" cy="104.7" rx="3.6" ry="1.5" fill="#E9E2D0" transform="rotate(160.9 135.1 104.7)"/><ellipse cx="95.9" cy="81.7" rx="3.6" ry="1.5" fill="#E9E2D0" transform="rotate(29.9 95.9 81.7)"/><ellipse cx="96.1" cy="90.9" rx="3.6" ry="1.5" fill="#E9E2D0" transform="rotate(0.6 96.1 90.9)"/><ellipse cx="133.8" cy="80.8" rx="3.6" ry="1.5" fill="#E9E2D0" transform="rotate(55.8 133.8 80.8)"/><ellipse cx="147.9" cy="86.3" rx="3.6" ry="1.5" fill="#E9E2D0" transform="rotate(56.8 147.9 86.3)"/><ellipse cx="114.1" cy="94.8" rx="3.6" ry="1.5" fill="#E9E2D0" transform="rotate(10.3 114.1 94.8)"/><ellipse cx="141" cy="100.1" rx="3.6" ry="1.5" fill="#E9E2D0" transform="rotate(3.3 141 100.1)"/><ellipse cx="144.8" cy="81.9" rx="3.6" ry="1.5" fill="#E9E2D0" transform="rotate(104.1 144.8 81.9)"/><ellipse cx="84.1" cy="104.3" rx="3.6" ry="1.5" fill="#E9E2D0" transform="rotate(35.4 84.1 104.3)"/><ellipse cx="141.6" cy="103.3" rx="3.6" ry="1.5" fill="#E9E2D0" transform="rotate(169.6 141.6 103.3)"/><ellipse cx="100.4" cy="81.5" rx="3.6" ry="1.5" fill="#E9E2D0" transform="rotate(94.4 100.4 81.5)"/><ellipse cx="140.8" cy="98.3" rx="3.6" ry="1.5" fill="#E9E2D0" transform="rotate(154.7 140.8 98.3)"/><ellipse cx="69.7" cy="103.9" rx="3.6" ry="1.5" fill="#E9E2D0" transform="rotate(16.4 69.7 103.9)"/><ellipse cx="100.1" cy="91.2" rx="3.6" ry="1.5" fill="#E9E2D0" transform="rotate(165.3 100.1 91.2)"/><ellipse cx="100" cy="103.1" rx="3.6" ry="1.5" fill="#E9E2D0" transform="rotate(98.1 100 103.1)"/><ellipse cx="97.2" cy="80" rx="3.6" ry="1.5" fill="#E9E2D0" transform="rotate(31.9 97.2 80)"/><ellipse cx="134.9" cy="105.9" rx="3.6" ry="1.5" fill="#E9E2D0" transform="rotate(29.1 134.9 105.9)"/><ellipse cx="70.9" cy="105.5" rx="3.6" ry="1.5" fill="#E9E2D0" transform="rotate(96 70.9 105.5)"/><ellipse cx="106.6" cy="77" rx="3.6" ry="1.5" fill="#E9E2D0" transform="rotate(106.9 106.6 77)"/><ellipse cx="148.6" cy="85.3" rx="3.6" ry="1.5" fill="#E9E2D0" transform="rotate(75.9 148.6 85.3)"/><ellipse cx="71.6" cy="102.8" rx="3.6" ry="1.5" fill="#E9E2D0" transform="rotate(5.9 71.6 102.8)"/><ellipse cx="115.4" cy="99.9" rx="3.6" ry="1.5" fill="#E9E2D0" transform="rotate(23.5 115.4 99.9)"/><ellipse cx="139.2" cy="104.1" rx="3.6" ry="1.5" fill="#E9E2D0" transform="rotate(113.5 139.2 104.1)"/><ellipse cx="109.5" cy="73.7" rx="3.6" ry="1.5" fill="#E9E2D0" transform="rotate(152.1 109.5 73.7)"/><ellipse cx="95.5" cy="85.2" rx="3.6" ry="1.5" fill="#E9E2D0" transform="rotate(179.9 95.5 85.2)"/><ellipse cx="151.2" cy="105.1" rx="3.6" ry="1.5" fill="#E9E2D0" transform="rotate(81.6 151.2 105.1)"/><ellipse cx="114.8" cy="95.7" rx="3.6" ry="1.5" fill="#E9E2D0" transform="rotate(86.2 114.8 95.7)"/><ellipse cx="95.1" cy="83.3" rx="3.6" ry="1.5" fill="#E9E2D0" transform="rotate(26.4 95.1 83.3)"/><ellipse cx="103.7" cy="105.6" rx="3.6" ry="1.5" fill="#E9E2D0" transform="rotate(172.8 103.7 105.6)"/><ellipse cx="128.7" cy="87" rx="3.6" ry="1.5" fill="#E9E2D0" transform="rotate(60.9 128.7 87)"/><ellipse cx="144.2" cy="101" rx="3.6" ry="1.5" fill="#E9E2D0" transform="rotate(65 144.2 101)"/><ellipse cx="144.6" cy="97.4" rx="3.6" ry="1.5" fill="#E9E2D0" transform="rotate(125 144.6 97.4)"/><ellipse cx="132.4" cy="96.9" rx="3.6" ry="1.5" fill="#E9E2D0" transform="rotate(65.4 132.4 96.9)"/><ellipse cx="136.4" cy="78.7" rx="3.6" ry="1.5" fill="#E9E2D0" transform="rotate(87.4 136.4 78.7)"/><ellipse cx="143" cy="94.3" rx="3.6" ry="1.5" fill="#E9E2D0" transform="rotate(52.9 143 94.3)"/><ellipse cx="160.6" cy="92.7" rx="3.6" ry="1.5" fill="#E9E2D0" transform="rotate(104.5 160.6 92.7)"/><ellipse cx="91.1" cy="93.5" rx="3.6" ry="1.5" fill="#E9E2D0" transform="rotate(83.3 91.1 93.5)"/><ellipse cx="147.7" cy="92.6" rx="3.6" ry="1.5" fill="#E9E2D0" transform="rotate(143.6 147.7 92.6)"/><ellipse cx="100.8" cy="92.5" rx="3.6" ry="1.5" fill="#E9E2D0" transform="rotate(132.8 100.8 92.5)"/><ellipse cx="148.8" cy="81.3" rx="3.6" ry="1.5" fill="#E9E2D0" transform="rotate(151.7 148.8 81.3)"/><ellipse cx="153" cy="94.2" rx="3.6" ry="1.5" fill="#E9E2D0" transform="rotate(175.7 153 94.2)"/><ellipse cx="118.9" cy="74.3" rx="3.6" ry="1.5" fill="#E9E2D0" transform="rotate(150.6 118.9 74.3)"/><ellipse cx="135.1" cy="95.3" rx="3.6" ry="1.5" fill="#E9E2D0" transform="rotate(131.5 135.1 95.3)"/><ellipse cx="83.2" cy="97.7" rx="3.6" ry="1.5" fill="#E9E2D0" transform="rotate(104.6 83.2 97.7)"/><ellipse cx="132.6" cy="84" rx="3.6" ry="1.5" fill="#E9E2D0" transform="rotate(112.3 132.6 84)"/><ellipse cx="143.5" cy="92.2" rx="3.6" ry="1.5" fill="#E9E2D0" transform="rotate(129.7 143.5 92.2)"/><ellipse cx="110.1" cy="92.7" rx="3.6" ry="1.5" fill="#E9E2D0" transform="rotate(39.4 110.1 92.7)"/><ellipse cx="134.6" cy="92" rx="3.6" ry="1.5" fill="#E9E2D0" transform="rotate(7.5 134.6 92)"/><ellipse cx="113.2" cy="76.6" rx="3.6" ry="1.5" fill="#E9E2D0" transform="rotate(9.7 113.2 76.6)"/><ellipse cx="79.4" cy="80.1" rx="3.6" ry="1.5" fill="#E9E2D0" transform="rotate(32.7 79.4 80.1)"/><ellipse cx="112.5" cy="82.5" rx="3.6" ry="1.5" fill="#E9E2D0" transform="rotate(110.1 112.5 82.5)"/><ellipse cx="125" cy="77" rx="3.6" ry="1.5" fill="#E9E2D0" transform="rotate(162.6 125 77)"/><ellipse cx="93.9" cy="83.6" rx="3.6" ry="1.5" fill="#E9E2D0" transform="rotate(20.7 93.9 83.6)"/><path d="M52 106h128c0 28-28 46-64 46s-64-18-64-46z" fill="url(#bowlb)"/><path d="M58 118c10 14 26 22 46 24" stroke="#A9C1D8" stroke-width="4" fill="none" stroke-linecap="round" opacity=".7"/><path d="M66 124h100" stroke="#3E5C7E" stroke-width="3" stroke-dasharray="1 7" stroke-linecap="round" opacity=".5"/></svg>