<svg xmlns="http://www.w3.org/2000/svg" viewBox="0 0 240 180"><defs></defs><ellipse cx="120" cy="155" rx="86" ry="7" fill="#17241D" opacity="0.08"/><path d="M98 152c3-16 1-30-6-42h24c-5 12-7 26-4 42z" fill="#93C46F"/><path d="M104 120l-14-12M108 118l12-14" stroke="#93C46F" stroke-width="6" stroke-linecap="round"/><circle cx="84" cy="96" r="19" fill="#3E8E4F"/><circle cx="104" cy="82" r="22" fill="#3E8E4F"/><circle cx="128" cy="94" r="20" fill="#3E8E4F"/><circle cx="94" cy="108" r="16" fill="#3E8E4F"/><circle cx="118" cy="108" r="17" fill="#3E8E4F"/><circle cx="112" cy="98" r="18" fill="#3E8E4F"/><circle cx="76" cy="110" r="13" fill="#3E8E4F"/><circle cx="134" cy="112" r="13" fill="#3E8E4F"/><circle cx="89.7" cy="105.6" r="3" fill="#2F7341" opacity=".9"/><circle cx="80.5" cy="96.5" r="3.3" fill="#2F7341" opacity=".9"/><circle cx="86.9" cy="88.3" r="2.8" fill="#5BAA65" opacity=".9"/><circle cx="84" cy="96.1" r="2.6" fill="#2F7341" opacity=".9"/><circle cx="83" cy="95.4" r="3.3" fill="#5BAA65" opacity=".9"/><circle cx="84.4" cy="99.7" r="2.1" fill="#2F7341" opacity=".9"/><circle cx="95.9" cy="95.8" r="3.4" fill="#5BAA65" opacity=".9"/><circle cx="83.6" cy="95.6" r="2.5" fill="#5BAA65" opacity=".9"/><circle cx="82.1" cy="96" r="3.5" fill="#2F7341" opacity=".9"/><circle cx="82.3" cy="97.8" r="3.3" fill="#2F7341" opacity=".9"/><circle cx="94.6" cy="106.6" r="2.7" fill="#2F7341" opacity=".9"/><circle cx="78.8" cy="94.2" r="2.8" fill="#5BAA65" opacity=".9"/><circle cx="84.2" cy="96.6" r="3.4" fill="#2F7341" opacity=".9"/><circle cx="85.2" cy="108.5" r="2.3" fill="#2F7341" opacity=".9"/><circle cx="98.2" cy="93.2" r="3.2" fill="#5BAA65" opacity=".9"/><circle cx="84.8" cy="86.7" r="3.2" fill="#5BAA65" opacity=".9"/><circle cx="89.5" cy="101.4" r="3.3" fill="#2F7341" opacity=".9"/><circle cx="88.5" cy="110.2" r="3.4" fill="#2F7341" opacity=".9"/><circle cx="79" cy="99.2" r="2.7" fill="#2F7341" opacity=".9"/><circle cx="71.9" cy="106.6" r="2.6" fill="#2F7341" opacity=".9"/><circle cx="85.5" cy="96.3" r="3.1" fill="#2F7341" opacity=".9"/><circle cx="92" cy="95.6" r="2.8" fill="#5BAA65" opacity=".9"/><circle cx="72.5" cy="92.2" r="2.4" fill="#5BAA65" opacity=".9"/><circle cx="77" cy="90.3" r="3" fill="#5BAA65" opacity=".9"/><circle cx="105.3" cy="84.9" r="2.6" fill="#2F7341" opacity=".9"/><circle cx="109.8" cy="79.1" r="3" fill="#5BAA65" opacity=".9"/><circle cx="103.3" cy="83.8" r="2.1" fill="#2F7341" opacity=".9"/><circle cx="109.7" cy="68.6" r="2.6" fill="#5BAA65" opacity=".9"/><circle cx="98.9" cy="70.5" r="3.4" fill="#5BAA65" opacity=".9"/><circle cx="111.4" cy="80" r="3.6" fill="#5BAA65" opacity=".9"/><circle cx="114.7" cy="79.3" r="3.4" fill="#5BAA65" opacity=".9"/><circle cx="97" cy="82.4" r="2.4" fill="#2F7341" opacity=".9"/><circle cx="106.2" cy="79.9" r="2.1" fill="#5BAA65" opacity=".9"/><circle cx="108.9" cy="68.4" r="2.8" fill="#5BAA65" opacity=".9"/><circle cx="104.5" cy="81.2" r="2.4" fill="#5BAA65" opacity=".9"/><circle cx="102.1" cy="89.6" r="2.3" fill="#2F7341" opacity=".9"/><circle cx="109.7" cy="84.7" r="3.4" fill="#2F7341" opacity=".9"/><circle cx="117.9" cy="80.6" r="2.8" fill="#5BAA65" opacity=".9"/><circle cx="103.8" cy="99.9" r="2.8" fill="#2F7341" opacity=".9"/><circle cx="103.9" cy="81.5" r="2.3" fill="#5BAA65" opacity=".9"/><circle cx="111.8" cy="69.4" r="3.4" fill="#5BAA65" opacity=".9"/><circle cx="97.6" cy="77.3" r="2.9" fill="#5BAA65" opacity=".9"/><circle cx="107.4" cy="77.3" r="2.9" fill="#5BAA65" opacity=".9"/><circle cx="101.7" cy="96.2" r="2" fill="#2F7341" opacity=".9"/><circle cx="96.9" cy="65.6" r="2" fill="#5BAA65" opacity=".9"/><circle cx="94" cy="75.3" r="3.4" fill="#5BAA65" opacity=".9"/><circle cx="99.9" cy="79.6" r="2.6" fill="#5BAA65" opacity=".9"/><circle cx="120.4" cy="77.7" r="2.2" fill="#5BAA65" opacity=".9"/><circle cx="105.5" cy="83" r="2" fill="#2F7341" opacity=".9"/><circle cx="101.5" cy="82.9" r="3.4" fill="#2F7341" opacity=".9"/><circle cx="102.7" cy="80" r="2.9" fill="#5BAA65" opacity=".9"/><circle cx="99.8" cy="90.2" r="2.4" fill="#2F7341" opacity=".9"/><circle cx="129.6" cy="96.7" r="2.6" fill="#2F7341" opacity=".9"/><circle cx="125.7" cy="84.9" r="2.1" fill="#5BAA65" opacity=".9"/><circle cx="124.4" cy="79.6" r="3.2" fill="#5BAA65" opacity=".9"/><circle cx="128" cy="93.9" r="2.7" fill="#5BAA65" opacity=".9"/><circle cx="140" cy="99" r="2.3" fill="#2F7341" opacity=".9"/><circle cx="127" cy="89.8" r="3.1" fill="#5BAA65" opacity=".9"/><circle cx="127.7" cy="94.7" r="2.6" fill="#2F7341" opacity=".9"/><circle cx="122.4" cy="108.3" r="2.5" fill="#2F7341" opacity=".9"/><circle cx="118.7" cy="93.8" r="3.5" fill="#5BAA65" opacity=".9"/><circle cx="136.3" cy="99.9" r="2.8" fill="#2F7341" opacity=".9"/><circle cx="126.4" cy="77.6" r="2.5" fill="#5BAA65" opacity=".9"/><circle cx="125.2" cy="85.5" r="2.9" fill="#5BAA65" opacity=".9"/><circle cx="140.8" cy="99.4" r="3.6" fill="#2F7341" opacity=".9"/><circle cx="124.7" cy="98.3" r="3.6" fill="#2F7341" opacity=".9"/><circle cx="129" cy="94.8" r="2.1" fill="#2F7341" opacity=".9"/><circle cx="133.1" cy="82.1" r="2.7" fill="#5BAA65" opacity=".9"/><circle cx="127.8" cy="93.8" r="3" fill="#5BAA65" opacity=".9"/><circle cx="119.8" cy="97.1" r="2.6" fill="#2F7341" opacity=".9"/><circle cx="124.9" cy="96.2" r="2.1" fill="#2F7341" opacity=".9"/><circle cx="124.2" cy="95.7" r="3.1" fill="#2F7341" opacity=".9"/><circle cx="133" cy="82.8" r="2.7" fill="#5BAA65" opacity=".9"/><circle cx="128.6" cy="100.5" r="2.8" fill="#2F7341" opacity=".9"/><circle cx="116.9" cy="81.9" r="2.1" fill="#5BAA65" opacity=".9"/><circle cx="119.7" cy="95.1" r="3.1" fill="#2F7341" opacity=".9"/><circle cx="138.2" cy="85.6" r="3" fill="#5BAA65" opacity=".9"/><circle cx="128.6" cy="82.7" r="3.4" fill="#5BAA65" opacity=".9"/><circle cx="91.1" cy="99.2" r="2.4" fill="#5BAA65" opacity=".9"/><circle cx="98.5" cy="105.4" r="3" fill="#5BAA65" opacity=".9"/><circle cx="99.9" cy="96.3" r="3.6" fill="#5BAA65" opacity=".9"/><circle cx="98.2" cy="108.2" r="2.5" fill="#2F7341" opacity=".9"/><circle cx="92.5" cy="109.2" r="2.9" fill="#2F7341" opacity=".9"/><circle cx="97.6" cy="110" r="3.5" fill="#2F7341" opacity=".9"/><circle cx="93.7" cy="101.7" r="2.2" fill="#5BAA65" opacity=".9"/><circle cx="103.2" cy="105.4" r="2.3" fill="#5BAA65" opacity=".9"/><circle cx="89.5" cy="115.5" r="3.1" fill="#2F7341" opacity=".9"/><circle cx="93.1" cy="120.9" r="2.5" fill="#2F7341" opacity=".9"/><circle cx="93.7" cy="119.5" r="2.2" fill="#2F7341" opacity=".9"/><circle cx="92.9" cy="105.5" r="3" fill="#5BAA65" opacity=".9"/><circle cx="93.1" cy="113.1" r="3.5" fill="#2F7341" opacity=".9"/><circle cx="88.2" cy="109.2" r="3" fill="#2F7341" opacity=".9"/><circle cx="93.5" cy="110.3" r="2.6" fill="#2F7341" opacity=".9"/><circle cx="93.6" cy="110.5" r="3.5" fill="#2F7341" opacity=".9"/><circle cx="104.8" cy="110.4" r="3.5" fill="#2F7341" opacity=".9"/><circle cx="93.9" cy="107.8" r="2.8" fill="#5BAA65" opacity=".9"/><circle cx="102" cy="110" r="3.1" fill="#2F7341" opacity=".9"/><circle cx="94" cy="108.1" r="2.9" fill="#2F7341" opacity=".9"/><circle cx="121.7" cy="110.5" r="2.7" fill="#2F7341" opacity=".9"/><circle cx="122.2" cy="104.7" r="2.2" fill="#5BAA65" opacity=".9"/><circle cx="121.1" cy="96.5" r="2.8" fill="#5BAA65" opacity=".9"/><circle cx="120.6" cy="108.8" r="2.6" fill="#2F7341" opacity=".9"/><circle cx="114.9" cy="107" r="3.3" fill="#5BAA65" opacity=".9"/><circle cx="125.4" cy="96.9" r="3.4" fill="#5BAA65" opacity=".9"/><circle cx="126.4" cy="108.9" r="2.1" fill="#2F7341" opacity=".9"/><circle cx="126.7" cy="101.6" r="3.2" fill="#5BAA65" opacity=".9"/><circle cx="118.3" cy="108.8" r="3.3" fill="#2F7341" opacity=".9"/><circle cx="111" cy="102.4" r="2.8" fill="#5BAA65" opacity=".9"/><circle cx="119.5" cy="103.4" r="2.4" fill="#5BAA65" opacity=".9"/><circle cx="115.4" cy="111.4" r="3" fill="#2F7341" opacity=".9"/><circle cx="118.8" cy="107.3" r="2.1" fill="#5BAA65" opacity=".9"/><circle cx="108.2" cy="107.3" r="2.3" fill="#5BAA65" opacity=".9"/><circle cx="117.9" cy="108.8" r="2.1" fill="#2F7341" opacity=".9"/><circle cx="108.2" cy="108.3" r="3" fill="#2F7341" opacity=".9"/><circle cx="118.8" cy="109.3" r="3.5" fill="#2F7341" opacity=".9"/><circle cx="112.3" cy="106.6" r="3.1" fill="#5BAA65" opacity=".9"/><circle cx="116.9" cy="100.5" r="2.1" fill="#5BAA65" opacity=".9"/><circle cx="119.4" cy="105.3" r="2.1" fill="#5BAA65" opacity=".9"/><circle cx="113.4" cy="114.2" r="3" fill="#2F7341" opacity=".9"/><circle cx="122.7" cy="117.1" r="2.8" fill="#2F7341" opacity=".9"/><circle cx="118.8" cy="109.1" r="3.3" fill="#2F7341" opacity=".9"/><circle cx="120.6" cy="92.2" r="2.3" fill="#5BAA65" opacity=".9"/><circle cx="114.4" cy="84.4" r="2.9" fill="#5BAA65" opacity=".9"/><circle cx="124.5" cy="89.9" r="2.6" fill="#5BAA65" opacity=".9"/><circle cx="125.4" cy="92.9" r="3.3" fill="#5BAA65" opacity=".9"/><circle cx="117.4" cy="98.4" r="3" fill="#2F7341" opacity=".9"/><circle cx="103" cy="90.8" r="3" fill="#5BAA65" opacity=".9"/><circle cx="119.5" cy="110.1" r="2.9" fill="#2F7341" opacity=".9"/><circle cx="114.3" cy="95.9" r="3.6" fill="#5BAA65" opacity=".9"/><circle cx="100.8" cy="94" r="3.2" fill="#5BAA65" opacity=".9"/><circle cx="116.1" cy="94.3" r="2.1" fill="#5BAA65" opacity=".9"/><circle cx="109.7" cy="99.5" r="2.9" fill="#2F7341" opacity=".9"/><circle cx="114.2" cy="92.9" r="2.2" fill="#5BAA65" opacity=".9"/><circle cx="118.4" cy="99.1" r="2.9" fill="#2F7341" opacity=".9"/><circle cx="122" cy="99.7" r="2.3" fill="#2F7341" opacity=".9"/><circle cx="123.1" cy="106.8" r="2.8" fill="#2F7341" opacity=".9"/><circle cx="118.2" cy="93.2" r="2.2" fill="#5BAA65" opacity=".9"/><circle cx="112.4" cy="104.5" r="3" fill="#2F7341" opacity=".9"/><circle cx="113.5" cy="86.6" r="3" fill="#5BAA65" opacity=".9"/><circle cx="111.9" cy="104.6" r="2.6" fill="#2F7341" opacity=".9"/><circle cx="107.9" cy="98.3" r="2.9" fill="#2F7341" opacity=".9"/><circle cx="111.5" cy="98.1" r="3.3" fill="#2F7341" opacity=".9"/><circle cx="101.5" cy="91.7" r="3.2" fill="#5BAA65" opacity=".9"/><circle cx="74.7" cy="99.1" r="2.6" fill="#5BAA65" opacity=".9"/><circle cx="76" cy="110" r="3.1" fill="#2F7341" opacity=".9"/><circle cx="70.4" cy="106.9" r="3.6" fill="#5BAA65" opacity=".9"/><circle cx="76.8" cy="112.4" r="3.2" fill="#2F7341" opacity=".9"/><circle cx="78" cy="105.1" r="2.1" fill="#5BAA65" opacity=".9"/><circle cx="69.7" cy="116.6" r="2.8" fill="#2F7341" opacity=".9"/><circle cx="71.8" cy="111" r="3" fill="#2F7341" opacity=".9"/><circle cx="69.8" cy="105.6" r="3.4" fill="#5BAA65" opacity=".9"/><circle cx="76" cy="105.9" r="2.4" fill="#5BAA65" opacity=".9"/><circle cx="77.7" cy="101.4" r="3.5" fill="#5BAA65" opacity=".9"/><circle cx="79" cy="118.9" r="3.4" fill="#2F7341" opacity=".9"/><circle cx="79" cy="111.6" r="3" fill="#2F7341" opacity=".9"/><circle cx="81.6" cy="117.3" r="2.4" fill="#2F7341" opacity=".9"/><circle cx="74.7" cy="107" r="2.3" fill="#5BAA65" opacity=".9"/><circle cx="77.5" cy="115.3" r="3.1" fill="#2F7341" opacity=".9"/><circle cx="77.5" cy="117.4" r="2.5" fill="#2F7341" opacity=".9"/><circle cx="131.6" cy="108.7" r="2.3" fill="#5BAA65" opacity=".9"/><circle cx="134.4" cy="112.5" r="3.1" fill="#2F7341" opacity=".9"/><circle cx="132.8" cy="112.7" r="3.4" fill="#2F7341" opacity=".9"/><circle cx="133.9" cy="111.8" r="3.2" fill="#5BAA65" opacity=".9"/><circle cx="129.9" cy="109.3" r="2.8" fill="#5BAA65" opacity=".9"/><circle cx="138" cy="111" r="3" fill="#5BAA65" opacity=".9"/><circle cx="131.3" cy="109" r="2.6" fill="#5BAA65" opacity=".9"/><circle cx="134.2" cy="105" r="2.7" fill="#5BAA65" opacity=".9"/><circle cx="131.5" cy="111.8" r="3.3" fill="#5BAA65" opacity=".9"/><circle cx="141.1" cy="112.9" r="2.7" fill="#2F7341" opacity=".9"/><circle cx="135.2" cy="118.4" r="2.9" fill="#2F7341" opacity=".9"/><circle cx="138.6" cy="114.8" r="2.3" fill="#2F7341" opacity=".9"/><circle cx="135.1" cy="108.6" r="2.5" fill="#5BAA65" opacity=".9"/><circle cx="134.1" cy="112.5" r="2.3" fill="#2F7341" opacity=".9"/><circle cx="138" cy="117.6" r="3.4" fill="#2F7341" opacity=".9"/><circle cx="134.2" cy="113.2" r="2.9" fill="#2F7341" opacity=".9"/><ellipse cx="98" cy="80" rx="12" ry="5" fill="#fff" opacity=".18" transform="rotate(-20 98 80)"/><circle cx="168" cy="124" r="18" fill="#3D7A3A"/><circle cx="168" cy="124" r="15" fill="#EEF2C9"/><circle cx="168" cy="124" r="7.5" fill="#E1E8B4"/><circle cx="194" cy="140" r="16" fill="#3D7A3A"/><circle cx="194" cy="140" r="13" fill="#EEF2C9"/><circle cx="194" cy="140" r="6.5" fill="#E1E8B4"/><circle cx="146" cy="146" r="10" fill="#F39A4C"/><circle cx="146" cy="146" r="5" fill="#F7B676"/><circle cx="164" cy="152" r="10" fill="#F39A4C"/><circle cx="164" cy="152" r="5" fill="#F7B676"/><circle cx="132" cy="154" r="10" fill="#F39A4C"/><circle cx="132" cy="154" r="5" fill="#F7B676"/></svg>